<svg xmlns="http://www.w3.org/2000/svg" viewBox="0 0 46.7 65.3"><defs><style>.cls-1{fill:#9b9a78;}.cls-2{fill:#313131;}</style></defs><g id="Слой_2" data-name="Слой 2"><g id="Слой_1-2" data-name="Слой 1"><path class="cls-1" d="M23.2,36.6a3.1,3.1,0,0,1-3.3-3.3A3.1,3.1,0,0,1,23.2,30a3.1,3.1,0,0,1,3.3,3.3A3.1,3.1,0,0,1,23.2,36.6Z"/><path class="cls-1" d="M43.2,10V50a3.55,3.55,0,0,1-3.3,3.3H33.2V18a6.76,6.76,0,0,0-4.7-6.3L3.2,3.3H36.5A6.7,6.7,0,0,1,43.2,10Z"/><path class="cls-2" d="M36.5,0H2.6c-.3,0-.7.3-1,.3H1.3L1,.6c0,.3-.3.7-.3,1-.3.3-.7.7-.7,1V51a6.39,6.39,0,0,0,4.7,6.3L28,65a4.65,4.65,0,0,0,2,.3A6.36,6.36,0,0,0,34,64a6.78,6.78,0,0,0,2.7-5.3v-2H40A6.7,6.7,0,0,0,46.7,50V10A10.07,10.07,0,0,0,36.5,0ZM29.9,58.6,6.6,50.9V7.9l21,7a3.21,3.21,0,0,1,2.3,3V58.6Zm10-8.6H36.6V18a9.6,9.6,0,0,0-7-9.3l-5.7-2H36.6A3.1,3.1,0,0,1,39.9,10Z"/></g></g></svg>