<svg xmlns="http://www.w3.org/2000/svg" viewBox="0 0 73.85 60"><defs><style>.cls-1{fill:#313131;}.cls-2{fill:#9b9a78;}</style></defs><g id="Слой_2" data-name="Слой 2"><g id="Слой_1-2" data-name="Слой 1"><path class="cls-1" d="M3.08,20.15a3,3,0,0,1-2.16-.92,3,3,0,0,1,0-4.31A50.25,50.25,0,0,1,36.92,0a50.25,50.25,0,0,1,36,14.92,3,3,0,1,1-4.3,4.31A44.48,44.48,0,0,0,36.92,6.15,44.44,44.44,0,0,0,5.23,19.23,3,3,0,0,1,3.08,20.15Z"/><path class="cls-1" d="M11.69,28.77a3,3,0,0,1-2.15-.92,3,3,0,0,1,0-4.31,38.62,38.62,0,0,1,54.77,0A3,3,0,0,1,60,27.85a32.31,32.31,0,0,0-45.85,0A3.78,3.78,0,0,1,11.69,28.77Z"/><path class="cls-1" d="M20.46,37.54a3,3,0,0,1-2.15-.92,3,3,0,0,1,0-4.31,26.38,26.38,0,0,1,37.23,0,3,3,0,1,1-4.31,4.31,20.23,20.23,0,0,0-28.61.15A3.71,3.71,0,0,1,20.46,37.54Z"/><path class="cls-2" d="M36.92,56.92a8.31,8.31,0,1,0-8.3-8.3A8.31,8.31,0,0,0,36.92,56.92Z"/><path class="cls-1" d="M36.92,60a10.86,10.86,0,0,1-8-3.38,11.54,11.54,0,1,1,16.16-.16A11,11,0,0,1,36.92,60Zm0-16.62a4.79,4.79,0,0,0-3.69,1.54,5.23,5.23,0,0,0,7.39,7.39,5.23,5.23,0,0,0,0-7.39A4.82,4.82,0,0,0,36.92,43.38Z"/></g></g></svg>